<svg xmlns="http://www.w3.org/2000/svg" viewBox="0 0 264.583 255.853">
  <path fill="#e0234e" d="M153.091 0c-3.154 0-6.088 1.07-8.4 2.852a12.126 12.126 0 0 0-4.596 7.389c-7.532-1.478-14.98.783-19.96 5.575a21.148 21.148 0 0 0-6.2 12.764 21.362 21.362 0 0 0-13.624-1.217c-6.9 1.83-12.592 6.725-15.617 13.423a24.966 24.966 0 0 0-12.252-1.07c-7.328 1.336-13.558 5.88-17.09 12.47a24.21 24.21 0 0 0-2.698 9.94c-4.408-.21-8.825.877-12.718 3.127-6.328 3.66-10.445 9.94-11.298 17.24a22.92 22.92 0 0 0-10.632 1.897c-6.58 2.87-11.612 8.372-13.81 15.092a24.097 24.097 0 0 0-.878 6.87c-4.138 1.17-7.88 3.494-10.819 6.718C5.31 120.06 2.93 129.2 5.06 137.86c-3.288 3.058-5.67 7.062-6.736 11.546A24.504 24.504 0 0 0 .652 163.32l.133.783c-1.072 4.378-.908 9.005.487 13.31 2.184 6.742 7.276 12.118 13.969 14.745.057 4.493 1.363 8.9 3.8 12.73 3.97 6.244 10.374 10.298 17.558 11.118 1.555 4.172 4.183 7.818 7.606 10.548 5.616 4.484 12.79 6.464 19.674 5.424a22.767 22.767 0 0 0 8.38 9.42c5.267 3.573 11.606 4.94 17.383 3.756a22.32 22.32 0 0 0 10.85 7.576c4.634 1.734 9.728 2.053 14.551.91a22.02 22.02 0 0 0 12.876 4.82c6.373.389 12.34-1.85 16.355-6.136a22.266 22.266 0 0 0 14.21 1.748c6.229-1.217 11.558-4.988 14.614-10.344a22.282 22.282 0 0 0 14.083 2.965 21.876 21.876 0 0 0 14.088-7.44 22.213 22.213 0 0 0 13.256 5.64c6.27.722 12.406-1.26 16.829-5.434a22.07 22.07 0 0 0 11.5 6.837c6.146 1.507 12.544.097 17.52-3.865a22.165 22.165 0 0 0 8.848 4.698c6.09 1.674 12.512.384 17.588-3.53a22.095 22.095 0 0 0 5.598-6.43 22.51 22.51 0 0 0 14.02-4.6c5.129-4.102 8.126-10.178 8.216-16.639a22.467 22.467 0 0 0 10.16-8.876c3.182-5.174 4.086-11.337 2.476-16.893a22.4 22.4 0 0 0 6.37-12.44c1.121-6.2-.56-12.476-4.602-17.194a22.524 22.524 0 0 0 2.032-14.93c-1.384-6.076-5.224-11.327-10.52-14.387.703-5.125-.006-10.392-2.053-15.133-3.328-7.69-10.135-13.157-18.076-14.514-.508-5.227-2.695-10.193-6.335-14.108-5.897-6.34-14.336-9.246-22.468-7.732a22.99 22.99 0 0 0-9.51-12.45c-5.712-3.976-12.642-5.39-19-3.874a22.753 22.753 0 0 0-12.24-10.14c-6.173-2.317-12.95-2.04-18.562.757-2.56-4.307-6.395-7.798-11.096-10.107-7.64-3.752-16.332-3.71-23.87.115a14.91 14.91 0 0 0-6.78-6.3A14.422 14.422 0 0 0 153.091 0z"/>
  <path fill="#fff" d="M153.091 6.182c1.555 0 3.078.517 4.354 1.553 1.93 1.568 2.81 4.007 2.374 6.361l-.522 2.826 2.58-1.248c5.34-2.585 11.793-2.785 17.244-.534 3.602 1.488 6.601 4.01 8.685 7.303l1.44 2.277 2.083-1.7c4.446-3.627 10.371-4.894 15.818-3.38 5.446 1.515 9.903 5.404 11.889 10.362l.99 2.47 2.324-1.264c5.014-2.727 11.1-2.787 16.163-.158 5.063 2.629 8.538 7.332 9.24 12.51l.342 2.52 2.468-.63c6.34-1.617 13.141.68 17.596 5.97 2.955 3.51 4.454 7.792 4.318 12.332l-.064 2.156 2.118.405c6.35 1.214 11.8 5.43 14.514 11.194 1.794 3.808 2.332 8.07 1.554 12.316l-.505 2.757 2.736.623c4.263.97 7.9 3.616 10.18 7.388 2.028 3.354 2.807 7.282 2.194 11.055l-.384 2.36 2.141 1.12c4.26 2.23 7.2 6.29 8.06 11.068.607 3.38.11 6.869-1.399 9.872l-1.09 2.169 1.931 1.502c3.616 2.813 5.785 7.035 5.946 11.57.113 3.2-.783 6.39-2.583 9.198l-1.554 2.426 2.26 1.805c.107.086 1.906 1.538 2.885 4.72 1.084 3.523.44 7.314-1.807 10.666l-1.203 1.795 1.616 1.458c2.99 2.697 4.55 6.571 4.273 10.613-.277 4.042-2.379 7.72-5.756 10.072l-2.36 1.643 1.94 2.166c2.336 2.608 3.388 6.07 2.886 9.495-.502 3.425-2.522 6.47-5.538 8.348l-2.4 1.497 1.12 2.6c1.68 3.898 1.508 8.295-.47 12.06-1.979 3.766-5.557 6.4-9.806 7.226l-2.553.496.903 2.44c1.27 3.43 1.138 7.173-.365 10.276a13.13 13.13 0 0 1-6.79 6.236l-.52.22c-2.9.86-5.924 1.067-8.936.547a16.08 16.08 0 0 1-5.39-2.1l-2.232-1.494-1.202 2.396a15.758 15.758 0 0 1-5.004 5.937c-3.403 2.622-7.606 3.506-11.53 2.426a15.818 15.818 0 0 1-6.766-4.128l-1.72-1.81-1.584 1.928a15.994 15.994 0 0 1-5.864 4.338c-3.98 1.868-8.404 1.696-12.164-.471a15.744 15.744 0 0 1-5.894-6.012l-1.27-2.229-2.062 1.513a15.812 15.812 0 0 1-9.76 2.76c-3.99-.312-7.607-2.23-9.914-5.256l-1.643-2.155-1.962 1.89a15.776 15.776 0 0 1-10.898 3.975 16.4 16.4 0 0 1-3.13-.303c-3.85-.752-7.24-3.034-9.275-6.25l-1.316-2.08-2.073 1.323a15.87 15.87 0 0 1-11.35 1.785c-3.946-.979-7.248-3.558-9.052-7.063l-1.06-2.059-2.158.87c-4.034 1.628-8.539 1.301-12.351-.897-3.812-2.198-6.301-5.965-6.825-10.327l-.3-2.495-2.436.65a15.808 15.808 0 0 1-13.164-2.723c-3.45-2.543-5.624-6.272-6.127-10.51l-.272-2.292-2.222.684c-4.26 1.311-8.76.493-12.342-2.244-2.822-2.158-4.717-5.242-5.34-8.686l-.462-2.551-2.36 1.08c-4.256 1.948-9.04 1.612-13.118-1.05-4.078-2.66-6.496-7.143-6.508-11.592l-.004-1.16-.94-.678c-4.908-3.543-7.684-9.424-7.165-15.44l.17-1.966-1.869-.723c-5.282-2.043-9.356-6.533-10.81-11.92-1.046-3.872-.72-7.996.918-11.608l.77-1.698-1.446-1.175c-1.938-1.574-3.44-3.59-4.381-5.872a16.56 16.56 0 0 1-.59-10.77c.578-2.16 1.6-4.147 2.993-5.826l1.42-1.714-1.886-1.128c-2.524-1.51-4.494-3.72-5.702-6.396a15.972 15.972 0 0 1-.776-10.394l.666-2.538-2.469-.88c-4.63-1.65-8.282-5.212-10.01-9.754-1.23-3.229-1.475-6.778-.707-10.27l.56-2.55-2.383-1.138a16.088 16.088 0 0 1-7.567-8.206c-1.648-3.82-1.784-8.075-.373-11.668l.903-2.3-2.2-1.128c-3.852-1.976-6.643-5.466-7.66-9.573-1.019-4.108-.172-8.312 2.32-11.527l1.568-2.023-2.147-1.36c-3.68-2.334-6.05-6.144-6.505-10.45-.455-4.305 1.073-8.55 4.194-11.657l2.09-2.082-2.67-.99a14.756 14.756 0 0 1-7.13-5.35c-2.66-3.632-3.499-8.04-2.297-12.074.903-3.032 2.73-5.72 5.286-7.776l1.86-1.497-1.447-1.9c-2.506-3.29-3.393-7.477-2.434-11.487.96-4.01 3.73-7.35 7.602-9.167l3.103-1.456-2.298-2.553c-1.2-1.334-2.17-2.92-2.765-4.647-1.52-4.412-.65-9.117 2.38-12.897 2.112-2.636 5.018-4.34 8.277-4.86 2.144-.342 4.383-.154 6.479.545l2.544.848.627-2.598a18.72 18.72 0 0 1 2.243-5.612c2.887-4.59 7.72-7.635 13.28-8.648 3.722-.678 7.504-.18 10.945 1.442l2.28 1.075.88-2.362a18.638 18.638 0 0 1 5.102-7.35c4.266-3.613 9.724-5.254 14.977-4.498 3.698.533 7.148 2.168 9.987 4.73l1.904 1.72 1.424-2.1a14.832 14.832 0 0 1 5.16-4.679c4.016-2.31 8.78-2.815 13.062-1.39a14.788 14.788 0 0 1 7.51 5.493l1.546 2.068 1.87-1.754c3.987-3.742 9.24-5.392 14.37-4.513a15.37 15.37 0 0 1 9.47 5.756l1.598 2.005 1.778-1.834c3.454-3.56 8.086-5.453 12.69-5.176 3.233.194 6.364 1.323 9.068 3.268l2.274 1.636 1.1-2.542c1.544-3.568 4.26-6.46 7.865-8.375 3.606-1.914 7.737-2.482 11.648-1.6l2.876.65.132-2.94c.155-3.454 1.754-6.682 4.38-8.814z"/>
</svg>
